<?xml version="1.0" encoding="UTF-8" standalone="no"?>
<!-- Created with Inkscape (http://www.inkscape.org/) -->

<svg
   xmlns:dc="http://purl.org/dc/elements/1.1/"
   xmlns:cc="http://creativecommons.org/ns#"
   xmlns:rdf="http://www.w3.org/1999/02/22-rdf-syntax-ns#"
   xmlns:svg="http://www.w3.org/2000/svg"
   xmlns="http://www.w3.org/2000/svg"
   xmlns:sodipodi="http://sodipodi.sourceforge.net/DTD/sodipodi-0.dtd"
   xmlns:inkscape="http://www.inkscape.org/namespaces/inkscape"
   id="svg2"
   version="1.1"
   inkscape:version="0.91 r13725"
   xml:space="preserve"
   width="3000"
   height="2000"
   viewBox="0 0 3000 2000"
   sodipodi:docname="logo_taurabots.svg"><metadata
     id="metadata8"><rdf:RDF><cc:Work
         rdf:about=""><dc:format>image/svg+xml</dc:format><dc:type
           rdf:resource="http://purl.org/dc/dcmitype/StillImage" /><dc:title></dc:title></cc:Work></rdf:RDF></metadata><defs
     id="defs6"><clipPath
       clipPathUnits="userSpaceOnUse"
       id="clipPath22"><path
         d="m 763.652,608.329 1023.875,0 0,-575.93 -1023.875,0 0,575.93 z"
         id="path24"
         inkscape:connector-curvature="0" /></clipPath><clipPath
       clipPathUnits="userSpaceOnUse"
       id="clipPath42"><path
         d="m 2165.906,395.961 150.297,0 0,-151.043 -150.297,0 0,151.043 z"
         id="path44"
         inkscape:connector-curvature="0" /></clipPath><clipPath
       clipPathUnits="userSpaceOnUse"
       id="clipPath52"><path
         d="m 2166,245 151,0 0,151 -151,0 0,-151 z"
         id="path54"
         inkscape:connector-curvature="0" /></clipPath><clipPath
       clipPathUnits="userSpaceOnUse"
       id="clipPath62"><path
         d="m 2166,396 151,0 0,-151 -151,0 0,151 z"
         id="path64"
         inkscape:connector-curvature="0" /></clipPath><clipPath
       clipPathUnits="userSpaceOnUse"
       id="clipPath68"><path
         d="m 2316.055,320.789 c 0,-19.887 -7.903,-38.965 -21.965,-53.031 -14.067,-14.067 -33.145,-21.965 -53.035,-21.965 -19.891,0 -38.965,7.898 -53.035,21.965 -14.063,14.066 -21.965,33.144 -21.965,53.031 0,19.891 7.902,38.969 21.965,53.035 14.07,14.063 33.144,21.965 53.035,21.965 19.89,0 38.968,-7.902 53.035,-21.965 14.062,-14.066 21.965,-33.144 21.965,-53.035 z"
         id="path70"
         inkscape:connector-curvature="0" /></clipPath><clipPath
       clipPathUnits="userSpaceOnUse"
       id="clipPath78"><path
         d="m 2026,170 355,0 0,184 -355,0 0,-184 z"
         id="path80"
         inkscape:connector-curvature="0" /></clipPath><clipPath
       clipPathUnits="userSpaceOnUse"
       id="clipPath88"><path
         d="m 2026.77,353.23 354.168,0 0,-183.035 -354.168,0 0,183.035 z"
         id="path90"
         inkscape:connector-curvature="0" /></clipPath><clipPath
       clipPathUnits="userSpaceOnUse"
       id="clipPath98"><path
         d="m 2016,170 365,0 0,183 -365,0 0,-183 z"
         id="path100"
         inkscape:connector-curvature="0" /></clipPath><clipPath
       clipPathUnits="userSpaceOnUse"
       id="clipPath132"><path
         d="m 2264.121,337.18 9.672,0 0,-9.672 -9.672,0 0,9.672 z"
         id="path134"
         inkscape:connector-curvature="0" /></clipPath><clipPath
       clipPathUnits="userSpaceOnUse"
       id="clipPath142"><path
         d="m 2264,328 10,0 0,10 -10,0 0,-10 z"
         id="path144"
         inkscape:connector-curvature="0" /></clipPath><clipPath
       clipPathUnits="userSpaceOnUse"
       id="clipPath152"><path
         d="m 2264,338 10,0 0,-10 -10,0 0,10 z"
         id="path154"
         inkscape:connector-curvature="0" /></clipPath><clipPath
       clipPathUnits="userSpaceOnUse"
       id="clipPath158"><path
         d="m 2264.32,330.922 2.848,6.547 5.894,-2.563 -2.847,-6.547 -5.895,2.563 z m 4.86,3.113 -0.489,-1.121 2.95,-1.281 0.488,1.121 -2.949,1.281 z"
         id="path160"
         inkscape:connector-curvature="0" /></clipPath><clipPath
       clipPathUnits="userSpaceOnUse"
       id="clipPath168"><path
         d="m 2264,328 9,0 0,9 -9,0 0,-9 z"
         id="path170"
         inkscape:connector-curvature="0" /></clipPath><clipPath
       clipPathUnits="userSpaceOnUse"
       id="clipPath178"><path
         d="m 2264.863,336.863 7.441,0 0,-8.188 -7.441,0 0,8.188 z"
         id="path180"
         inkscape:connector-curvature="0" /></clipPath><clipPath
       clipPathUnits="userSpaceOnUse"
       id="clipPath188"><path
         d="m 2265,329 7,0 0,8 -7,0 0,-8 z"
         id="path190"
         inkscape:connector-curvature="0" /></clipPath></defs><sodipodi:namedview
     pagecolor="#ffffff"
     bordercolor="#666666"
     borderopacity="1"
     objecttolerance="10"
     gridtolerance="10"
     guidetolerance="10"
     inkscape:pageopacity="0"
     inkscape:pageshadow="2"
     inkscape:window-width="2556"
     inkscape:window-height="1395"
     id="namedview4"
     showgrid="false"
     fit-margin-top="0"
     fit-margin-left="0"
     fit-margin-right="0"
     fit-margin-bottom="0"
     inkscape:zoom="0.25107007"
     inkscape:cx="1310.1121"
     inkscape:cy="875.18773"
     inkscape:window-x="4"
     inkscape:window-y="0"
     inkscape:window-maximized="1"
     inkscape:current-layer="g12" /><g
     id="g10"
     inkscape:groupmode="layer"
     inkscape:label="banner"
     transform="matrix(1.25,0,0,-1.25,-284.37584,3462.7968)"><g
       id="g12"><path
         d="m 635.18333,1271.9398 c -21.656,3.918 -35.691,10.746 -48.441,23.559 -9.301,9.351 -12.961,15.031 -16.152,25.07 -2.59,8.141 -4.098,19.035 -4.055,29.211 0.059,12.938 1.277,18.903 6.016,29.434 7.437,16.535 24.152,33.351 40.621,40.859 20.574,9.379 40.367,12.492 71.836,11.297 l 27.855,-1.059 -1.008,15.719 c -1.32,20.559 -6.945,30.012 -22.043,37.043 -9.683,4.508 -14.183,5.129 -36.988,5.117 -18.418,0 -30.535,-1.203 -41.703,-4.105 l -15.742,-4.09 -3.207,7.676 c -1.762,4.222 -3.805,12.789 -4.543,19.039 -1.16,9.887 -0.805,11.531 2.722,12.633 11.653,3.636 41.313,8.078 61.391,9.195 26.992,1.5 48.313,-2.273 68.277,-12.078 19.438,-9.547 30.653,-24.942 36.625,-50.281 2.555,-10.836 3.223,-31.172 3.246,-99.254 l 0.032,-85.629 -24.34,-4.856 c -27.313,-5.449 -81.684,-7.886 -100.395,-4.5 l -0.004,0 z m 74.657,39.778 c 1.722,1.066 2.484,13.656 2.484,41.113 l 0,39.582 -20.012,1.359 c -35.328,2.403 -61.136,-4.379 -71.371,-18.746 -3.679,-5.172 -5.054,-10.597 -5.644,-22.277 -0.578,-11.418 0.191,-17.488 2.953,-23.309 3.965,-8.355 12.574,-15.629 22.226,-18.777 6.676,-2.176 65.582,-1.281 69.364,1.055 z m 200.453,-39.973 c -19.801,2.66 -37.348,10.309 -49.297,21.48 -12.453,11.653 -19.832,23.559 -26.047,42.028 -4.227,12.566 -4.574,19.105 -5.309,100.226 l -0.785,86.786 6.914,1.382 c 8.672,1.735 29.672,1.746 36.118,0.02 l 4.871,-1.305 0.035,-76.012 c 0.039,-83.941 1.586,-98.304 12.305,-114.484 4.203,-6.348 9.898,-11.051 18.675,-15.441 11.914,-5.953 14.055,-6.293 37.864,-6.051 13.878,0.141 28.64,1.07 32.808,2.07 l 7.57,1.817 0.563,104.054 0.562,104.059 4.848,1.301 c 6.379,1.707 27.40997,1.711 35.94497,0 l 6.762,-1.356 0,-119.66 c 0,-112.082 -0.238,-119.734 -3.785,-120.812 -2.082,-0.633 -12.992,-3.18 -24.242,-5.661 -22.77397,-5.019 -74.37897,-7.398 -96.37897,-4.441 l 0.004,0 z m 428.05497,0.195 c -21.704,3.93 -35.692,10.739 -48.379,23.563 -9.266,9.367 -12.875,15.008 -16.024,25.07 -5.668,18.106 -5.285,39.805 0.992,56.242 6.621,17.344 23.801,35.375 41.09,43.137 21.332,9.574 40.574,12.617 72.145,11.418 l 27.855,-1.055 -1.012,15.715 c -1.316,20.559 -6.945,30.016 -22.039,37.043 -9.683,4.508 -14.183,5.133 -36.988,5.117 -18.23,0 -30.555,-1.207 -41.383,-4.023 l -15.422,-4.004 -3.496,7.332 c -1.922,4.035 -4.117,12.598 -4.871,19.031 l -1.375,11.696 8.395,2.117 c 22.051,5.554 40.937,7.82 65.726,7.875 22,0.051 29.868,-0.828 42.188,-4.715 8.332,-2.629 19.59,-7.606 25.019,-11.055 11.25,-7.152 22.067,-22.207 27.422,-38.16 3.16,-9.414 3.762,-23.445 4.387,-101.934 l 0.723,-91.019 -24.45,-4.918 c -16.867,-3.395 -34.503,-5.16 -56.898,-5.703 -17.852,-0.434 -37.473,0.121 -43.605,1.23 z m 74.496,39.68 c 1.925,1.191 2.644,12.363 2.644,41.223 l 0,39.59 -19.168,1.445 c -23.07,1.742 -41.621,-0.133 -53.312,-5.391 -11.25,-5.058 -14.703,-7.976 -20.274,-17.109 -3.402,-5.586 -4.594,-11.09 -4.601,-21.27 0,-8.207 1.406,-16.715 3.504,-21.14 3.769,-7.938 12.531,-15.219 22,-18.289 6.898,-2.235 65.351,-1.442 69.207,0.941 z m 521.902,-39.531 c -15.078,2.922 -39.699,16.117 -50.481,27.051 -5.363,5.441 -13.23,16.507 -17.476,24.589 -22.875,43.536 -22.914,112.344 -0.086,155.789 4.199,7.989 11.473,18.52 16.16,23.399 10.918,11.363 31.793,23.59 47.309,27.711 16.179,4.293 50.23,4.238 67.011,-0.11 12.606,-3.265 29.86,-12.007 41,-20.773 7.223,-5.68 18.399,-20.828 24.649,-33.41 2.953,-5.942 7.215,-17.133 9.476,-24.867 3.309,-11.332 4.102,-20.993 4.071,-49.762 -0.035,-32.711 -0.528,-37.238 -5.867,-54.09 -6.5,-20.512 -20.586,-43.297 -33.192,-53.687 -10.164,-8.379 -31.5,-18.938 -44.156,-21.852 -11.547,-2.66 -44.668,-2.652 -58.418,0.02 l 0,-0.01 z m 55.555,48.711 c 10.785,8.668 17.437,20.886 21.297,39.113 3.75,17.684 4.152,60.789 0.753,80.559 -3.273,19.054 -12.441,36.632 -22.66,43.449 -6.504,4.34 -11.359,5.547 -24.496,6.101 -15.203,0.641 -17.137,0.211 -26.801,-5.988 -7.886,-5.059 -11.699,-9.484 -15.703,-18.23 -8.176,-17.86 -10.136,-33.438 -9.023,-71.672 0.738,-25.446 2.031,-37.621 4.879,-45.965 4.496,-13.188 16.297,-27.926 25.797,-32.223 4.199,-1.902 12.328,-2.781 22.156,-2.398 13.625,0.527 16.539,1.418 23.801,7.254 z m 349.035,-47.832 c -16.465,3.707 -40.93,15.343 -52.496,24.968 l -8.145,6.774 14.36,16.043 c 7.894,8.824 15.113,16.047 16.039,16.047 0.925,0 6.609,-3.321 12.636,-7.371 15.614,-10.508 30.918,-15.141 50.059,-15.145 27.785,0 41.082,10.356 41.101,32.043 0,9.523 -0.859,11.438 -8.421,18.629 -5.684,5.41 -13.957,9.949 -25.422,13.953 -32.539,11.367 -48.184,18.117 -59.598,25.723 -11.687,7.789 -22.758,22.265 -27.371,35.801 -3.531,10.371 -3.109,29.847 0.945,43.5 2.711,9.132 6.293,14.417 16.766,24.734 15.637,15.398 30.699,22.121 55.512,24.769 20.562,2.196 48.023,-0.515 63.375,-6.261 14.55,-5.442 38.32,-20.512 38.293,-24.274 0,-1.515 -6.098,-9.363 -13.524,-17.445 l -13.504,-14.691 -9.734,6.625 c -14.082,9.578 -29.813,13.628 -49.141,12.652 -15.492,-0.781 -16.515,-1.164 -23.554,-8.844 -4.368,-4.769 -7.36,-10.285 -7.36,-13.578 0,-8.285 5.504,-17.359 13.473,-22.215 3.894,-2.375 18.765,-8.426 33.047,-13.445 14.277,-5.016 30.676,-11.504 36.433,-14.414 12.567,-6.352 28.594,-20.684 33.305,-29.789 5.031,-9.731 9.18,-26.887 9.18,-37.977 0,-12.535 -4.754,-30.301 -10.676,-39.879 -8.18,-13.238 -24.75,-26.199 -41.664,-32.593 -13.453,-5.086 -19.723,-6.071 -42.805,-6.735 -18.488,-0.527 -31.496,0.227 -41.109,2.395 z m -1879.14497,3.183 c -7.183,2.348 -17.023,7.66 -21.871,11.809 -4.976,4.258 -11.062,12.527 -13.984,18.996 -5.133,11.352 -5.184,12.191 -5.836,95.289 l -0.656,83.84 -19.508,0 c -17.918,0 -19.449,0.332 -18.813,4.086 0.895,5.289 81.809,95.707 84.278,94.179 1.031,-0.636 1.875,-14.734 1.875,-31.32 l 0,-30.164 62.156,0 1.25,-9.195 c 0.687,-5.059 0.695,-13.332 0,-18.391 l -1.242,-9.195 -62.172,0 0,-72.086 c 0,-58.863 0.613,-74.164 3.359,-83.399 2.496,-8.414 5.129,-12.433 10.278,-15.695 6.101,-3.867 9.507,-4.262 28.953,-3.383 25.375,1.149 24.093,2.149 26.004,-20.359 1.066,-12.566 0.726,-14.469 -2.86,-16.008 -2.242,-0.957 -16.242,-2.086 -31.117,-2.508 -22.492,-0.632 -29.242,-0.043 -40.105,3.504 l 0.011,0 z m 650.23097,121.985 0,124.226 4.867,1.305 c 8.551,2.289 28.797,1.457 32.578,-1.34 2.625,-1.945 4.055,-7.434 5.059,-19.477 l 1.402,-16.765 13.207,13.34 c 7.609,7.687 17.789,15.394 24.023,18.183 11.356,5.078 36.805,8.735 44.29,6.36 3.968,-1.262 4.386,-3.188 4.355,-20.18 -0.02,-10.332 -0.746,-19.758 -1.621,-20.949 -0.875,-1.188 -8.891,-2.371 -17.817,-2.625 -8.925,-0.254 -20.335,-2.028 -25.363,-3.942 -12.125,-4.617 -27.375,-21.765 -32.234,-36.242 -3.211,-9.574 -3.969,-22.902 -5.008,-88.086 l -1.219,-76.808 -23.261,-0.614 -23.258,-0.613 0,124.227 z m 525.031,-120.477 c -1.863,1.863 -1.867,165.59 0,214.691 l 1.426,37.633 54.277,-1.297 c 44.426,-1.062 57.328,-2.089 71.074,-5.66 9.235,-2.402 18.973,-5.508 21.637,-6.902 11.609,-6.086 21.977,-16.422 26.746,-26.664 6.731,-14.457 7.09,-36.5 0.797,-48.84 -6.184,-12.121 -17.164,-22.32 -27.812,-25.832 -5.043,-1.668 -9.559,-3.656 -10.032,-4.422 -0.472,-0.766 5.848,-3.551 14.047,-6.191 12.215,-3.934 16.617,-6.7 24.359,-15.317 5.2,-5.781 10.61,-14.375 12.024,-19.097 3.574,-11.926 3.211,-32.188 -0.816,-45.758 -4.235,-14.262 -16.918,-28.449 -32.043,-35.848 -19.5,-9.543 -39.489,-11.937 -99.622,-11.937 -30.039,0 -55.269,0.648 -56.062,1.441 z m 116.855,47.395 c 14.329,10.511 17.731,30.593 7.782,45.937 -7.801,12.031 -17.598,15.649 -43.903,16.211 l -20.515,0.441 -0.598,-34.308 -0.598,-34.305 25.864,0.77 c 21.992,0.656 26.773,1.441 31.968,5.254 z m -13.343,105.73 c 9.937,4.152 16.187,14.777 16.195,27.551 0,7.703 -1.312,11.68 -5.539,16.703 -3.051,3.625 -9.137,7.59 -13.523,8.809 -4.383,1.218 -15.52,2.218 -24.743,2.226 l -16.765,0.024 0,-58.418 18.461,0 c 11.168,0 21.402,1.23 25.914,3.113 l 0,-0.01 z m 412.14,-51.797 0,102.77 -64.91,0 0,47.601 193.156,0 -1.453,-16.769 c -0.797,-9.223 -2.011,-19.93 -2.699,-23.801 l -1.254,-7.031 -62.262,0 0,-205.539 -60.578,0 0,102.769 z m -742.734,464.278 c -20.309,1.675 -44.395,6.031 -82.461,14.906 -23.176,5.406 -56.223,17.453 -75.16,27.402 -17.242,9.063 -34.992,24.11 -40.172,34.051 -1.934,3.711 -5.652,18.918 -8.266,33.793 -2.617,14.875 -5.5,30.43 -6.414,34.57 l -1.656,7.524 13.27,-12.286 c 7.296,-6.757 19.636,-15.324 27.421,-19.039 11.625,-5.55 16.946,-6.781 29.825,-6.918 18.851,-0.191 28.871,3.903 41.652,17.028 10.57,10.851 22.734,34.953 29.453,58.359 4.113,14.328 4.891,22.207 4.867,49.496 -0.019,20.223 -1.086,36.121 -2.847,42.188 -5.582,19.226 -14.004,38.113 -23.297,52.23 -12.766,19.391 -45.176,50.039 -58.168,55 -9.207,3.516 -13.211,3.625 -48.27,1.321 -61.461,-4.04 -90.23,-5.368 -89.07,-4.11 0.594,0.645 6.5,5.403 13.121,10.57 38.168,29.786 67.438,62.485 83.137,92.883 18.176,35.188 32.554,81.867 35.097,113.942 0.688,8.625 1.461,15.683 1.727,15.683 0.262,0 12.535,-6.156 27.273,-13.679 34.797,-17.77 78.622,-34.942 109.973,-43.098 22.406,-5.824 28.367,-6.5 57.453,-6.5 28.211,0 35.281,0.746 54.09,5.727 32.934,8.718 67.984,22.265 103.852,40.136 17.847,8.895 33.066,16.492 33.816,16.887 0.75,0.394 2.051,-4.926 2.895,-11.82 6.171,-50.399 26.632,-107.786 50.207,-140.825 14.527,-20.359 37.328,-43.699 62.332,-63.816 l 21.601,-17.375 -25.93,1.441 c -14.257,0.789 -43.238,2.551 -64.398,3.914 -28.457,1.829 -40.582,1.844 -46.562,0.051 -10.602,-3.176 -34.149,-22.754 -48.95,-40.699 -15.152,-18.367 -25.543,-38.273 -32.488,-62.234 -4.687,-16.188 -5.531,-23.438 -5.531,-47.653 0,-33.5 4.164,-53.078 17.097,-80.343 9.653,-20.352 18.665,-31.36 32.129,-39.25 8.18,-4.797 12.196,-5.664 25.832,-5.575 14.067,0.09 18.176,1.11 31.954,7.914 8.691,4.297 20.906,12.602 27.136,18.454 l 11.332,10.636 -1.14,-7.926 c -3.825,-26.632 -11.032,-62.761 -13.453,-67.441 -6.18,-11.953 -21.801,-24.691 -43.282,-35.297 -39.062,-19.285 -102.129,-35.359 -157.937,-40.254 -28.895,-2.535 -42.055,-2.531 -73.09,0.032 z m -376.781,403.859 c -12,15.004 -18.571,28.367 -25.262,51.383 -4.324,14.867 -5.023,22.043 -4.977,50.847 0.039,25.727 1.172,39.188 4.856,57.825 2.641,13.363 8.219,34.293 12.391,46.519 10.519,30.824 37.007,83.141 54.484,107.606 17.312,24.238 52.637,60.586 70.875,72.929 17.183,11.629 44.73,25.442 59.5,29.832 18.969,5.641 43.351,7.703 63.699,5.391 10.059,-1.145 20.816,-3.039 23.91,-4.215 l 5.617,-2.137 -14.699,-13.504 c -34.371,-31.566 -55.785,-53.378 -64.941,-66.132 -12.981,-18.086 -18.645,-36.067 -17.184,-54.539 0.613,-7.735 3.692,-21.196 6.844,-29.918 6.145,-16.996 6.141,-17.328 -0.297,-51.215 -8.617,-45.375 -29.133,-93.188 -53.93,-125.696 -16.574,-21.726 -47.464,-50.792 -68.48,-64.433 -15.863,-10.293 -38.762,-22.984 -41.481,-22.984 -0.535,0 -5.453,5.597 -10.925,12.441 z m 792.258,1.359 c -37.208,22.133 -60.7,43.258 -87.418,78.61 -11.852,15.675 -30.708,53.953 -39.301,79.777 -7.188,21.582 -12.739,46.273 -14.762,65.629 -1.019,9.75 -0.312,15.187 3.199,24.574 2.481,6.629 5.61,18.356 6.949,26.059 2.028,11.629 1.844,16.324 -1.07,27.695 -1.93,7.531 -5.988,17.93 -9.019,23.102 -8.856,15.109 -28.489,36.507 -57.836,63.031 -15.047,13.601 -27.364,25.402 -27.364,26.223 0,2.953 27.477,6.914 47.602,6.859 11.305,-0.035 27.191,-1.617 35.305,-3.52 19.113,-4.48 43.031,-15.617 65.144,-30.328 23.59,-15.699 60.906,-54.504 79.594,-82.773 28,-42.36 48.465,-88.852 59.34,-134.832 4.152,-17.563 5.652,-31.106 6.605,-59.66 1.168,-35.121 0.946,-38.047 -4.543,-59.352 -3.175,-12.324 -8.254,-26.969 -11.289,-32.539 -5.543,-10.191 -23.664,-32.355 -26.445,-32.355 -0.82,0 -11.934,6.21 -24.691,13.8 z"
         style="fill:#000000;fill-opacity:1;fill-rule:nonzero;stroke:none"
         id="path16"
         inkscape:connector-curvature="0" /></g></g></svg>