<?xml version="1.0" encoding="UTF-8" standalone="no"?>
<!-- Created with Inkscape (http://www.inkscape.org/) -->

<svg
   xmlns:dc="http://purl.org/dc/elements/1.1/"
   xmlns:cc="http://creativecommons.org/ns#"
   xmlns:rdf="http://www.w3.org/1999/02/22-rdf-syntax-ns#"
   xmlns:svg="http://www.w3.org/2000/svg"
   xmlns="http://www.w3.org/2000/svg"
   xmlns:sodipodi="http://sodipodi.sourceforge.net/DTD/sodipodi-0.dtd"
   xmlns:inkscape="http://www.inkscape.org/namespaces/inkscape"
   width="800mm"
   height="200mm"
   viewBox="0 0 2834.6456 708.66142"
   id="svg2"
   version="1.1"
   inkscape:version="0.91 r13725"
   sodipodi:docname="logo_taurabots_horizontal.svg">
  <defs
     id="defs4" />
  <sodipodi:namedview
     id="base"
     pagecolor="#ffffff"
     bordercolor="#666666"
     borderopacity="1.0"
     inkscape:pageopacity="0.0"
     inkscape:pageshadow="2"
     inkscape:zoom="0.35"
     inkscape:cx="1197.8353"
     inkscape:cy="672.21836"
     inkscape:document-units="px"
     inkscape:current-layer="layer1"
     showgrid="false"
     fit-margin-top="0"
     fit-margin-left="0"
     fit-margin-right="0"
     fit-margin-bottom="0"
     inkscape:window-width="2556"
     inkscape:window-height="1395"
     inkscape:window-x="4"
     inkscape:window-y="0"
     inkscape:window-maximized="1" />
  <metadata
     id="metadata7">
    <rdf:RDF>
      <cc:Work
         rdf:about="">
        <dc:format>image/svg+xml</dc:format>
        <dc:type
           rdf:resource="http://purl.org/dc/dcmitype/StillImage" />
        <dc:title></dc:title>
      </cc:Work>
    </rdf:RDF>
  </metadata>
  <g
     inkscape:label="Layer 1"
     inkscape:groupmode="layer"
     id="layer1"
     transform="translate(499.69305,-495.91914)">
    <path
       style="fill:#FFFFFF"
       d="m -25.083543,1144.962 c -2.2,-0.213 -11.425,-1.077 -20.5,-1.92 -27.21925,-2.5285 -66.014997,-11.2246 -88.007387,-19.7269 -21.63279,-8.3633 -33.55848,-14.9256 -43.53015,-23.9529 -8.60322,-7.7885 -9.9242,-11.3234 -14.98098,-40.0884 -2.46481,-14.0209 -4.48148,-25.816 -4.48148,-26.2113 0,-0.3953 1.75244,1.4775 3.8943,4.1619 3.64003,4.5619 13.41559,13.0179 19.1057,16.5267 4.81515,2.9692 16.39639,7.0619 22.42073,7.9233 6.91507,0.9887 17.12022,-0.2811 21.95483,-2.7317 16.25245,-8.2381 29.268817,-30.7322 35.277127,-60.9637 2.47299,-12.4432 2.44419,-37.7586 -0.0562,-49.374 -2.17821,-10.11889 -6.678177,-23.20903 -10.828687,-31.50002 -9.15179,-18.28145 -31.90235,-42.44848 -46.26782,-49.14848 -6.4677,-3.01651 -10.69993,-3.00577 -58.5,0.14848 -20.625,1.36101 -38.80612,2.48029 -40.4025,2.48728 -2.59766,0.0114 -1.96752,-0.68803 6,-6.65954 20.52315,-15.38172 35.43766,-29.96956 48.76937,-47.70119 20.3533,-27.07057 32.70027,-59.8421 38.11851,-101.17483 0.8522,-6.50094 1.74023,-12.01066 1.9734,-12.24383 0.23316,-0.23317 3.11923,1.21336 6.41348,3.21451 9.30484,5.65239 35.04893,17.81092 51.899627,24.51138 36.63884,14.56895 64.20386,20.01648 90.8977396,17.96363 28.7558304,-2.21141 76.2802204,-18.49955 113.5645434,-38.92221 7.00379,-3.83636 12.90422,-6.9752 13.11206,-6.9752 0.20785,0 0.6884,3.42636 1.06788,7.61413 2.44921,27.02794 11.11691,57.66603 22.93335,81.06347 12.17193,24.10134 35.37528,50.61642 61.7512,70.56473 6.00512,4.54172 10.31963,8.38775 9.58779,8.54673 -0.73183,0.15898 -18.94565,-0.85352 -40.47515,-2.25 -45.66174,-2.96179 -52.95216,-3.092 -57.87829,-1.03373 -8.99375,3.75782 -28.223833,21.29307 -38.254043,34.88254 -9.66994,13.10136 -17.57349,32.03775 -20.58899,49.32995 -1.9118,10.963 -1.91711,33.3396 -0.0105,44.1735 4.28961,24.3749 15.03148,47.5425 26.65755,57.494 18.968593,16.2364 48.889953,10.185 71.123883,-14.3843 3.0806,-3.4041 5.40673,-5.3595 5.16918,-4.3452 -0.23756,1.0143 -2.42438,13.1669 -4.85962,27.0058 -2.43523,13.8389 -5.17299,26.6028 -6.08391,28.3643 -13.92684,26.9316 -85.385493,51.0223 -163.986573,55.2845 -4.4,0.2386 -9.8,0.2596 -12,0.047 z M 1744.4165,979.646 c -21.87,-2.2504 -44.3968,-13.6116 -55.4373,-27.9595 -10.8044,-14.04123 -16.0482,-25.23321 -20.3635,-43.46315 -2.4364,-10.29236 -2.6344,-12.8271 -2.6655,-34.11837 -0.037,-25.30022 0.8079,-31.52726 6.6971,-49.35291 3.0991,-9.38035 10.4229,-22.34781 17.5103,-31.00336 8.0904,-9.88059 25.5549,-20.37995 40.2589,-24.20293 10.2875,-2.67472 30.851,-3.69523 42.5996,-2.11411 17.1883,2.31318 35.9411,10.98341 46.8772,21.67331 6.4882,6.3421 15.674,20.16563 19.3927,29.18359 9.1372,22.15782 12.087,54.12106 7.5263,81.55218 -8.2116,49.39035 -38.0918,77.90425 -83.8958,80.05935 -6.05,0.2847 -14.375,0.1703 -18.5,-0.2541 z m 26.2705,-36.706 c 18.742,-5.93001 27.6646,-28.10238 27.7112,-68.86125 0.038,-33.08479 -4.9562,-52.56391 -16.1638,-63.04736 -7.8123,-7.30749 -12.343,-8.90295 -25.3179,-8.91564 -9.9995,-0.01 -11.5116,0.24047 -16.6245,2.7514 -7.7872,3.8242 -13.7956,10.58464 -17.6591,19.86941 -5.1992,12.49435 -6.6707,23.16436 -6.6707,48.36842 0,25.1941 1.4701,35.86256 6.6653,48.36842 3.686,8.87284 10.6221,16.90421 17.4562,20.2125 8.2143,3.9765 20.4186,4.4766 30.6033,1.2541 z m 303.7295,36.7174 c -12.4148,-1.117 -27.08,-5.3187 -38.5,-11.0307 -9.7692,-4.8863 -23.5089,-14.3494 -24.2486,-16.7009 -0.2039,-0.6485 4.9062,-6.9485 11.3559,-13.99999 6.4497,-7.05145 11.855,-12.98681 12.0119,-13.18968 0.1568,-0.20287 2.1767,1.25024 4.4886,3.22914 5.5626,4.76134 19.7851,12.02464 27.8922,14.24423 4.5556,1.2473 10.0897,1.7788 18.5,1.7769 15.0094,0 21.2987,-2.0737 27.4178,-9.02543 5.0096,-5.69117 6.4077,-9.90252 5.9056,-17.78839 -0.8153,-12.80448 -8.8908,-19.25541 -35.1884,-28.10943 -27.6693,-9.31584 -40.0468,-15.61009 -49.1873,-25.013 -10.4665,-10.76702 -15.4027,-23.07637 -15.4329,-38.48507 -0.053,-27.01216 17.5524,-47.82637 47.4852,-56.14023 6.9655,-1.93467 10.4569,-2.2235 27,-2.23358 16.2463,-0.01 20.2649,0.30561 27.7278,2.17705 10.2384,2.5674 20.418,7.20253 30.8079,14.02779 12.7831,8.39743 12.7596,6.95084 0.3477,21.32763 -5.879,6.80968 -10.9882,12.50386 -11.3537,12.65373 -0.3656,0.14988 -3.7193,-1.73378 -7.4527,-4.18589 -13.0806,-8.59136 -26.3639,-12.25614 -41.0928,-11.33723 -14.7031,0.91729 -23.3198,7.65699 -24.2474,18.96558 -0.3864,4.71128 -0.07,5.8228 2.9149,10.23832 4.4405,6.56896 12.1861,10.64231 35.2022,18.51253 19.2088,6.56831 33.4528,13.10712 40.6461,18.65879 6.4905,5.00933 14.4789,15.37678 17.0155,22.08306 3.4323,9.07422 5.2139,20.70129 4.5313,29.57285 -2.7822,36.15892 -30.3702,58.24652 -75.0468,60.08422 -6.05,0.2489 -14.825,0.1084 -19.5,-0.3123 z M 684.33748,978.1231 c -18.7286,-3.1551 -30.6842,-8.5332 -40.83952,-18.3712 -11.27107,-10.919 -16.03944,-23.73622 -16.06672,-43.18682 -0.0174,-12.38428 1.56695,-19.49343 6.6768,-29.9601 4.47712,-9.17074 15.83954,-20.9088 24.83204,-25.65307 8.1526,-4.30117 21.4349,-8.83091 30.4764,-10.39353 8.342,-1.44173 41.2188,-1.88535 50.3767,-0.67977 l 5.8768,0.77363 -0.5123,-11.27363 c -0.5928,-13.04727 -2.2958,-18.72506 -7.4076,-24.69702 -8.6885,-10.15054 -25.7476,-14.17989 -51.1947,-12.09216 -10.0472,0.82429 -28.8677,4.43932 -34.6362,6.65289 -2.4947,0.95731 -8.45642,-17.48403 -8.48792,-26.25556 l -0.015,-4.11823 5.75002,-1.58681 c 27.5868,-7.61302 64.3361,-9.2012 85.696,-3.70348 13.3708,3.44144 23.1988,8.84697 30.8701,16.97894 7.691,8.1529 11.484,15.09465 14.7788,27.0478 2.3414,8.49412 2.3433,8.5499 2.6669,80.63084 l 0.3238,72.13088 -2.2928,0.5541 c -8.4756,2.0486 -34.9284,6.7362 -43.0034,7.6206 -12.9491,1.4183 -44.4173,1.1739 -53.8684,-0.4183 z m 49.579,-31.0293 c 6.05,-0.8097 11.1125,-1.4759 11.25,-1.4805 0.1375,0 0.25,-14.59493 0.25,-32.423 l 0,-32.41468 -7.75,-0.83532 c -4.2625,-0.45943 -14.725,-0.77931 -23.25,-0.71086 -13.8407,0.11113 -16.377,0.40821 -23.6921,2.77521 -17.7092,5.73027 -26.2573,18.00215 -25.0906,36.02095 0.9898,15.28781 9.5509,25.6207 24.1662,29.1676 7.0952,1.7219 30.9086,1.6682 44.1165,-0.099 z m 171.5,31.0498 c -17.7483,-2.5938 -30.2254,-8.0761 -40.7171,-17.8906 -11.6896,-10.9351 -17.8013,-22.76246 -22.4287,-43.40414 -2.0992,-9.36445 -2.2,-12.31885 -2.5885,-75.86995 l -0.4042,-66.12608 4.5912,-0.68849 c 5.79,-0.86827 26.3527,-0.87409 30.9652,-0.009 l 3.4763,0.65215 0.3742,65.14863 c 0.3377,58.78835 0.5504,65.83203 2.1793,72.14864 6.4512,25.01722 21.5922,35.43314 51.5785,35.48264 10.8877,0.018 24.6888,-1.3378 31.2238,-3.0673 l 3.75,-0.9924 0,-84.35019 0,-84.35017 3.5546,-0.66684 c 4.6033,-0.86359 26.2875,-0.86359 30.89082,0 l 3.5546,0.66684 0,97.29786 0,97.2979 -12.92412,3.1257 c -21.8027,5.273 -37.0149,7.0605 -59.0759,6.9418 -10.725,-0.058 -23.325,-0.664 -28,-1.3472 z m 347.39022,-0.1049 c -10.9292,-1.8364 -26.2929,-7.4579 -32.1664,-11.7694 -6.4547,-4.7382 -14.5519,-13.4246 -17.0007,-18.2377 -6.3395,-12.46038 -8.7869,-31.51197 -5.8309,-45.39144 3.3251,-15.61308 13.577,-30.51017 27.2354,-39.57611 6.9552,-4.6166 23.6563,-10.88023 33.3724,-12.51609 8.474,-1.42673 40.0178,-1.84425 50.25,-0.66513 l 6.75,0.77785 0,-7.08044 c 0,-7.41869 -2.329,-19.71336 -4.5417,-23.97526 -2.4532,-4.72535 -9.8947,-10.91109 -16.216,-13.47968 -8.6927,-3.53217 -22.1715,-4.78624 -38.1072,-3.5455 -10.7403,0.83623 -28.2075,4.17024 -34.3927,6.56461 -1.3962,0.54048 -2.1992,-0.31787 -3.9051,-4.17437 -3.1781,-7.18448 -4.8121,-14.1523 -4.8254,-20.57652 l -0.012,-5.71145 4.25,-1.14975 c 21.1225,-5.71426 47.4907,-8.4268 67.25,-6.91814 16.8051,1.28311 25.3098,3.63309 38.8073,10.72301 12.8538,6.75187 22.5448,20.73824 26.8616,38.76779 2.0777,8.67757 2.1694,11.51673 2.5593,79.24953 l 0.4045,70.24949 -2.3164,0.8735 c -3.6437,1.3741 -33.3676,6.9139 -43.3163,8.0731 -12.4843,1.4548 -45.2152,1.1507 -55.1098,-0.5119 z m 56.1098,-31.6371 6,-1.2966 0,-31.98766 0,-31.98765 -5,-0.8361 c -2.75,-0.45986 -13.1,-0.88495 -23,-0.94465 -14.7203,-0.0888 -19.0932,0.22129 -24,1.70173 -9.1677,2.76599 -14.5939,5.87823 -19.6231,11.25485 -6.4013,6.84352 -8.2146,12.7632 -7.7026,25.14599 0.3445,8.33257 0.7961,10.37901 3.2999,14.95592 3.7388,6.83443 10.8319,12.09347 19.4763,14.44037 5.5472,1.506 9.4571,1.7072 25.5495,1.3143 10.45,-0.2551 21.7,-1.0473 25,-1.7605 z m -752.00004,31.6186 c -17.63758,-2.5123 -28.3965,-7.251 -36.57174,-16.1079 -6.4292,-6.9652 -8.5134,-10.8947 -11.30128,-21.3073 -1.8907,-7.0617 -2.02931,-11.22424 -2.3717,-71.22427 l -0.36364,-63.72424 -15.12499,-0.27576 -15.125,-0.27575 -0.69409,-2.59948 c -0.62746,-2.34998 2.52273,-6.18919 32.82128,-40 18.43346,-20.57029 34.12642,-37.54602 34.87327,-37.72384 1.11635,-0.26582 1.35789,4.13673 1.35789,24.75 l 0,25.07332 25.92041,0 25.9204,0 0.71143,6.64321 c 0.68416,6.38856 -0.0661,21.76126 -1.14751,23.51094 -0.28752,0.46522 -12.01226,0.84585 -26.05498,0.84585 l -25.53222,0 0.50539,56.25 c 0.29631,32.97985 0.94927,58.83882 1.57837,62.50785 1.1506,6.71059 4.69807,14.67197 7.77722,17.45397 5.21324,4.7102 16.48436,6.44 30.44703,4.6728 14.03311,-1.7761 13.07455,-1.9809 14.57972,3.1154 0.73099,2.475 1.61317,9.0871 1.96042,14.6936 0.71492,11.5429 1.80744,10.0202 -8.81054,12.2794 -5.09692,1.0845 -30.57123,2.1236 -35.35514,1.4422 z m 513.75004,-2.1386 -3.25,-0.4033 0,-100.32827 0,-100.32823 2.6806,-0.67279 c 4.0814,-1.02436 24.5777,-0.77653 27.4946,0.33246 2.3094,0.87805 2.6856,1.78129 3.6653,8.80099 0.6006,4.30239 1.3998,11.18228 1.7762,15.28866 0.666,7.26665 0.7264,7.40025 2.2583,5 2.8397,-4.44918 15.3235,-16.85928 20.649,-20.52713 9.047,-6.23087 17.1159,-8.52939 32.2003,-9.17256 12.3403,-0.52616 13.2762,-0.43693 14,1.33485 0.9912,2.42615 1.014,25.78075 0.03,30.3987 l -0.746,3.5 -8.5897,-0.3259 c -18.119,-0.68746 -32.0992,4.15952 -41.0888,14.24553 -6.8073,7.63768 -9.9241,13.66391 -13.0924,25.31381 l -2.6561,9.76656 -0.3483,58.62853 -0.3483,58.62859 -3.6922,0.6104 c -3.9251,0.649 -25.4907,0.5856 -30.9422,-0.091 z m 421.75,-102.35918 0,-102.08257 43.25,0.45512 c 46.4038,0.4883 50.7063,0.88572 67.6971,6.25313 10.4074,3.28768 22.3275,11.20267 26.7357,17.7525 5.9544,8.84743 7.6971,14.9564 7.7604,27.20438 0.051,9.93409 -0.2055,11.55972 -2.6499,16.77617 -1.4886,3.17689 -4.1746,7.8203 -5.9688,10.3187 -3.9918,5.55843 -14.277,12.55288 -22.2651,15.14129 l -5.9406,1.92495 6.8651,1.72444 c 16.9928,4.26847 30.8652,14.91341 35.4684,27.21663 6.1011,16.30652 3.8441,38.5518 -5.2898,52.13784 -3.9535,5.8804 -13.3021,13.4885 -21.1625,17.2226 -16.4066,7.7937 -36.2658,9.9992 -90.25,10.0226 l -34.25,0.015 0,-102.08258 z m 86.7631,64.58211 c 12.929,-3.65476 19.0462,-12.97048 18.0086,-27.42459 -0.5719,-7.9661 -3.2636,-13.6282 -8.6844,-18.26825 -6.2323,-5.33461 -12.9894,-6.94327 -31.771,-7.56366 l -16.3163,-0.53895 0,28.28802 0,28.288 16.25,-0.50505 c 11.1794,-0.34746 18.2043,-1.05752 22.5131,-2.27552 z m -7.8489,-86.57457 c 6.3287,-1.35727 10.6879,-4.28274 14.5324,-9.75279 2.5542,-3.63415 3.0779,-5.42766 3.39,-11.60838 0.5932,-11.74569 -3.8059,-18.91748 -13.8366,-22.55782 -1.9881,-0.72154 -10.3034,-1.48074 -19.25,-1.75758 l -15.75,-0.48736 0,23.61947 0,23.61948 12.9508,0 c 7.1229,0 15.2065,-0.48376 17.9634,-1.07502 z m 337.0858,40.57502 0,-83.5 -26,0 -26,0 0,-18.5 0,-18.5 77.6015,0 77.6015,0 -0.7158,6.75 c -0.3937,3.7125 -1.4519,11.925 -2.3515,18.25 l -1.6357,11.5 -25.25,0.26717 -25.25,0.26717 0,83.48283 0,83.48285 -24,0 -24,0 0,-83.50002 z m -2217.98744,-33.25 c -16.08868,-17.97227 -24.34081,-43.21132 -24.27669,-74.25 0.10316,-49.94011 17.02437,-100.80631 49.45578,-148.66715 12.22839,-18.04611 32.50382,-39.87262 48.30831,-52.00392 17.00151,-13.05011 44.71874,-25.3063 62.91988,-27.82233 10.0619,-1.3909 28.80672,-0.69264 38.56194,1.43646 5.17902,1.13034 9.74731,2.39306 10.15174,2.80605 0.40443,0.41299 -5.79482,6.60089 -13.77611,13.75089 -29.90203,26.78757 -44.8509,43.94876 -51.15357,58.72392 -2.45142,5.74681 -2.67465,7.3724 -2.647,19.27608 0.0283,12.19391 0.23528,13.55806 3.33782,22 4.21182,11.4603 4.68114,16.86878 2.62183,30.21401 -3.67806,23.83537 -10.89684,46.19365 -22.53169,69.78599 -14.75958,29.92845 -36.94435,55.03247 -65.71398,74.36118 -7.81582,5.25101 -27.32481,16.13882 -28.91786,16.13882 -0.65617,0 -3.50934,-2.5875 -6.3404,-5.75 z m 564.9874,-0.89341 c -23.20428,-13.33909 -36.33067,-23.74036 -52.86355,-41.88873 -12.34831,-13.55492 -20.3686,-25.32951 -28.5865,-41.96786 -12.54124,-25.3916 -19.93112,-49.07763 -23.23459,-74.47149 l -1.66762,-12.81906 2.53429,-5.85472 c 6.66269,-15.39217 8.19887,-33.25792 3.93095,-45.71688 -5.18196,-15.12725 -20.13214,-32.67144 -52.86298,-62.03525 -7.287503,-6.53784 -13.250003,-12.21433 -13.250003,-12.61443 0,-0.40011 4.65064,-1.70814 10.33474,-2.90675 10.803303,-2.27809 26.692523,-2.93811 38.165263,-1.58534 16.1551,1.90487 38.30825,11.01583 57.44096,23.62382 10.59034,6.97878 29.33017,24.5507 40.7422,38.20308 30.27748,36.22137 53.81896,88.15733 60.81965,134.17702 2.1874,14.37908 2.9671,38.2221 1.60866,49.19211 -1.30157,10.5108 -5.17891,26.2113 -8.32291,33.70199 -4.39969,10.48242 -18.76236,29.64006 -22.18362,29.58961 -0.60772,-0.009 -6.27994,-2.99117 -12.60494,-6.62712 z"
       id="path3433"
       inkscape:connector-curvature="0" />
  </g>
</svg>
